<svg id="visual" viewBox="0 0 1200 600" width="1200" height="600" xmlns="http://www.w3.org/2000/svg" xmlns:xlink="http://www.w3.org/1999/xlink" version="1.1"><rect x="0" y="0" width="1200" height="600" fill="#FFFFFF"></rect><defs><linearGradient id="grad1_0" x1="50%" y1="100%" x2="100%" y2="0%"><stop offset="10%" stop-color="#ffa600" stop-opacity="1"></stop><stop offset="90%" stop-color="#ffa600" stop-opacity="1"></stop></linearGradient></defs><defs><linearGradient id="grad1_1" x1="50%" y1="100%" x2="100%" y2="0%"><stop offset="10%" stop-color="#ffa600" stop-opacity="1"></stop><stop offset="90%" stop-color="#ffffff" stop-opacity="1"></stop></linearGradient></defs><defs><linearGradient id="grad2_0" x1="0%" y1="100%" x2="50%" y2="0%"><stop offset="10%" stop-color="#ffa600" stop-opacity="1"></stop><stop offset="90%" stop-color="#ffa600" stop-opacity="1"></stop></linearGradient></defs><defs><linearGradient id="grad2_1" x1="0%" y1="100%" x2="50%" y2="0%"><stop offset="10%" stop-color="#ffffff" stop-opacity="1"></stop><stop offset="90%" stop-color="#ffa600" stop-opacity="1"></stop></linearGradient></defs><g transform="translate(1200, 600)"><path d="M-560 0C-521 -80.5 -481.9 -161 -445.1 -257C-408.4 -353 -373.8 -464.5 -300 -519.6C-226.2 -574.7 -113.1 -573.4 0 -572L0 0Z" fill="#ffd291"></path><path d="M-280 0C-260.5 -40.2 -241 -80.5 -222.6 -128.5C-204.2 -176.5 -186.9 -232.3 -150 -259.8C-113.1 -287.4 -56.5 -286.7 0 -286L0 0Z" fill="#ffa600"></path></g><g transform="translate(0, 0)"><path d="M535 0C520.8 88 506.7 176 472 272.5C437.3 369 382.1 474.1 300 519.6C217.9 565.1 109 551.1 0 537L0 0Z" fill="#ffd291"></path><path d="M267.5 0C260.4 44 253.3 88 236 136.2C218.6 184.5 191 237.1 150 259.8C109 282.6 54.5 275.5 0 268.5L0 0Z" fill="#ffa600"></path></g></svg>